<svg width="23" height="23" fill="none" xmlns="http://www.w3.org/2000/svg"><path d="m7.092 22.118 2.683-2.76a7.34 7.34 0 0 1-2.645-1.111l-.038 3.871ZM15.909.882l-2.684 2.76a7.34 7.34 0 0 1 2.645 1.111L15.91.882ZM.882 15.908l3.872-.038a7.34 7.34 0 0 1-1.112-2.645l-2.76 2.683ZM22.119 7.092l-3.872.038a9.002 9.002 0 0 1 1.112 2.645l2.76-2.683ZM.882 7.092l2.76 2.683A7.34 7.34 0 0 1 4.754 7.13L.882 7.092ZM22.119 15.908l-2.76-2.683a7.34 7.34 0 0 1-1.112 2.645l3.872.038ZM7.092.882l.038 3.871a9.001 9.001 0 0 1 2.645-1.111L7.092.882ZM15.909 22.118l-.039-3.871a7.34 7.34 0 0 1-2.645 1.111l2.684 2.76Z" fill="#FFE62E"/><path d="m4.907 16.1-1.534 3.565 3.565-1.533A8.52 8.52 0 0 1 4.907 16.1ZM18.093 6.9l1.534-3.565L16.1 4.868A9.107 9.107 0 0 1 18.093 6.9ZM3.603 10.082 0 11.5l3.603 1.418A5.748 5.748 0 0 1 3.45 11.5c0-.498.038-.958.153-1.418ZM19.397 12.918 23 11.5l-3.603-1.418c.076.46.153.958.153 1.418 0 .498-.038.958-.153 1.418ZM6.9 4.907 3.335 3.373l1.533 3.565A8.52 8.52 0 0 1 6.9 4.907ZM16.1 18.093l3.565 1.534-1.533-3.565a8.52 8.52 0 0 1-2.032 2.031ZM12.918 3.603 11.5 0l-1.418 3.603c.46-.076.958-.153 1.418-.153.46 0 .959.038 1.418.153ZM10.082 19.397 11.5 23l1.418-3.603c-.46.115-.92.153-1.418.153-.498 0-.958-.038-1.418-.153Z" fill="#FFCE31"/><path d="M11.5 18.783a7.283 7.283 0 1 0 0-14.566 7.283 7.283 0 0 0 0 14.566Z" fill="#FFCE31"/></svg>